PathFileType	4	(X/Y/Z)	D:\MotionData\NordSprintingStudy\Test 2\Edited\JustTheBoards000001.trc
DataRate	CameraRate	NumFrames	NumMarkers	Units	OrigDataRate	OrigDataStartFrame	OrigNumFrames
200.00	200.00	       67	5	mm	200.00	391	       624
Frame#	Time	M1			M2			M3			M4			M5			
		X1	Y1	Z1	X2	Y2	Z2	X3	Y3	Z3	X4	Y4	Z4	X5	Y5	Z5	

391	1.950	917.14233	1916.82983	47.36987	901.19098	2236.98145	59.09069	1100.87048	2247.60864	57.84384	1500.48108	2267.89282	58.42696	1516.04053	1946.84888	47.43271	
392	1.955	917.13245	1916.82715	47.37236	901.13898	2236.99316	59.19797	1100.75305	2247.55225	57.92315	1500.38745	2267.88721	58.50723	1516.01636	1946.83447	47.47518	
393	1.960	917.09680	1916.81189	47.41761	901.14679	2236.96460	59.17549	1100.69800	2247.56519	58.04689	1500.43567	2267.86694	58.43134	1515.99646	1946.83081	47.47731	
394	1.965	916.99481	1916.79333	47.53317	901.14178	2236.99902	59.17140	1100.76794	2247.58862	57.92827	1500.36658	2267.73682	58.57652	1515.94910	1946.84058	47.53300	
395	1.970	917.02008	1916.83044	47.47191	901.15271	2236.95020	59.20139	1100.71643	2247.57666	58.02007	1500.13342	2267.96191	58.58846	1515.96313	1946.82544	47.50009	
396	1.975	916.97900	1916.79968	47.56150	900.57043	2237.59155	59.13034	1100.63879	2247.53540	58.05042	1500.16333	2267.94727	58.48463	1515.89807	1946.81848	47.57850	
397	1.980	916.92932	1916.77844	47.59377	900.54114	2237.55835	59.30522	1100.65088	2247.54199	58.07666	1500.10327	2267.93188	58.57345	1515.83167	1946.81421	47.62650	
398	1.985	916.96497	1916.77832	47.57669	900.59222	2237.59717	59.23759	1100.61926	2247.55859	58.09959	1500.11768	2267.94312	58.52375	1515.89514	1946.81909	47.57912	
399	1.990	916.92474	1916.77588	47.61679	900.73187	2237.59106	59.38977	1100.65613	2247.55176	58.05145	1500.05945	2267.91455	58.59628	1515.86255	1946.81689	47.60254	
400	1.995	916.98993	1916.79089	47.54822	901.01923	2236.95313	59.26721	1100.66516	2247.59546	58.06213	1500.03394	2267.93286	58.66819	1515.89880	1946.81799	47.57735	
401	2.000	916.97162	1916.78894	47.56388	901.05573	2236.95215	59.28843	1100.69592	2247.56470	58.03728	1500.08923	2267.92676	58.58268	1515.87756	1946.80115	47.58624	
402	2.005	917.02490	1916.78491	47.48637	900.96515	2236.97998	59.28370	1100.65320	2247.56055	58.06398	1500.10388	2267.94043	58.58550	1515.89124	1946.80371	47.59253	
403	2.010	917.02332	1916.78613	47.52958	901.12109	2237.01123	59.19497	1100.65112	2247.55029	58.08820	1500.24670	2267.98267	58.48567	1515.91394	1946.82605	47.58542	
404	2.015	917.01642	1916.77478	47.53118	901.04279	2236.98242	59.25267	1100.70996	2247.57446	58.01436	1500.22778	2267.96362	58.48247	1515.91516	1946.83167	47.57246	
405	2.020	917.09717	1916.78394	47.47381	900.56232	2237.58789	58.83893	1100.70862	2247.56421	58.04599	1500.34875	2267.97998	58.41425	1515.97961	1946.83887	47.52885	
406	2.025	917.10120	1916.80310	47.42772	900.67090	2237.39063	58.98379	1100.81299	2247.58374	57.95851	1500.32898	2267.96875	58.38444	1515.98743	1946.83435	47.52978	
407	2.030	917.16656	1916.82703	47.39384	900.88287	2237.23169	58.81575	1100.77002	2247.56421	57.96644	1500.39453	2268.01538	58.29086	1516.04968	1946.85986	47.44739	
408	2.035	917.12360	1916.82043	47.39938	900.94983	2237.15454	58.87701	1100.89893	2247.61792	57.81990	1500.44177	2268.02588	58.28226	1516.04468	1946.84973	47.46510	
409	2.040	917.22443	1916.84314	47.29902	901.11316	2237.05127	58.74192	1100.87732	2247.62305	57.82191	1500.45837	2268.06274	58.24743	1516.14941	1946.87830	47.36433	
410	2.045	917.19897	1916.83398	47.32618	901.12897	2237.03174	58.76624	1100.94250	2247.62891	57.74466	1500.44617	2268.08350	58.23120	1516.14307	1946.87524	47.35847	
411	2.050	917.25287	1916.87329	47.21823	901.13184	2236.98560	58.79905	1100.90491	2247.64111	57.83858	1500.50378	2268.11597	58.19925	1516.16162	1946.89124	47.29016	
412	2.055	917.26813	1916.87500	47.18170	901.16284	2236.96191	58.69938	1100.96167	2247.64209	57.68449	1500.41943	2268.06616	58.22385	1516.20264	1946.89514	47.24079	
413	2.060	917.29303	1916.88940	47.19254	901.29010	2236.86523	58.73095	1100.99548	2247.61841	57.63802	1500.49963	2268.10229	58.12017	1516.17871	1946.89136	47.28551	
414	2.065	917.22443	1916.86438	47.17832	901.22229	2236.93115	58.74328	1100.95715	2247.61816	57.68232	1500.35657	2268.02563	58.25552	1516.14185	1946.89282	47.25187	
415	2.070	917.23083	1916.86072	47.20333	901.16290	2236.90430	58.76537	1100.96375	2247.62817	57.66003	1500.45544	2268.09912	58.14030	1516.16223	1946.88489	47.27958	
416	2.075	917.21381	1916.87317	47.19291	901.10046	2236.86572	58.83430	1100.91150	2247.58228	57.75315	1500.40808	2268.05884	58.21385	1516.07056	1946.86438	47.33078	
417	2.080	917.18323	1916.87646	47.25556	901.13733	2236.91382	58.82453	1100.93909	2247.59985	57.76216	1500.40747	2268.05615	58.21828	1516.09070	1946.88635	47.35171	
418	2.085	917.14600	1916.85339	47.30169	901.07043	2236.89111	58.93813	1100.91052	2247.54639	57.86572	1500.34204	2268.02734	58.29637	1516.01196	1946.88623	47.40556	
419	2.090	917.14075	1916.83899	47.34595	901.07941	2236.90552	58.90662	1100.86145	2247.51538	57.89879	1500.35400	2268.05078	58.29934	1516.03613	1946.85547	47.42276	
420	2.095	917.09814	1916.81006	47.40298	901.07538	2236.89893	58.92799	1100.88757	2247.44971	57.94073	1500.20996	2267.99170	58.46904	1516.02930	1946.85754	47.45917	
421	2.100	917.03363	1916.78955	47.48972	900.99548	2236.87085	59.07697	1100.86279	2247.39990	58.04718	1500.22083	2267.99683	58.41508	1515.92871	1946.82544	47.57406	
422	2.105	917.03577	1916.77087	47.53550	901.01904	2236.84399	59.00794	1100.92932	2247.26367	58.20610	1500.23206	2267.95020	58.46926	1515.94104	1946.80762	47.58506	
423	2.110	917.02087	1916.77405	47.50614	900.97894	2236.83716	59.14020	1101.10925	2247.07886	58.24166	1500.13623	2267.92651	58.61502	1515.91040	1946.80481	47.58527	
424	2.115	917.00580	1916.75867	47.58060	900.98444	2236.81958	59.08497	1101.28027	2246.87207	58.25358	1500.15063	2267.95190	58.59930	1515.90308	1946.80066	47.62893	
425	2.120	917.00128	1916.77576	47.57686	901.06860	2236.83398	59.01848	1101.43469	2246.64697	58.41148	1500.08154	2267.88208	58.69032	1515.92615	1946.78699	47.59171	
426	2.125	916.96265	1916.77734	47.67064	901.02521	2236.83374	59.09129	1100.64661	2247.71875	58.28043	1500.11328	2267.87671	58.65209	1515.88916	1946.79285	47.65648	
427	2.130	916.96002	1916.75244	47.62775	900.96863	2236.83057	59.11720	1100.54846	2247.73071	58.38029	1500.15808	2267.93188	58.57742	1515.88794	1946.78552	47.65359	
428	2.135	916.96387	1916.77075	47.61485	900.98663	2236.84961	59.16546	1100.59375	2247.73877	58.29705	1500.16602	2267.92578	58.58797	1515.84570	1946.77332	47.69306	
429	2.140	916.98669	1916.76294	47.57423	900.99719	2236.84424	59.07978	1100.57605	2247.75610	58.31264	1500.13879	2267.93042	58.55752	1515.88721	1946.79871	47.63769	
430	2.145	916.98401	1916.77295	47.60269	900.96436	2236.81250	59.15936	1100.66296	2247.74707	58.20874	1500.17334	2267.94971	58.56745	1515.86694	1946.79028	47.65173	
431	2.150	917.01141	1916.77820	47.51288	901.04230	2236.82739	59.03142	1100.61401	2247.73462	58.31220	1500.26636	2267.97339	58.47135	1515.93250	1946.80945	47.55545	
432	2.155	917.08643	1916.81506	47.42157	901.07507	2236.88721	58.94491	1100.68140	2247.75586	58.16885	1500.19116	2267.96606	58.48605	1515.97803	1946.83386	47.52032	
433	2.160	917.07532	1916.80371	47.41020	901.07251	2236.88770	58.93666	1100.76733	2247.74341	58.02985	1500.27673	2267.99316	58.36726	1516.00232	1946.84961	47.42827	
434	2.165	917.11383	1916.82092	47.37394	901.17487	2236.87305	58.75972	1100.79077	2247.74951	58.01357	1500.30566	2268.01587	58.32043	1516.05298	1946.86499	47.39056	
435	2.170	917.15686	1916.85339	47.30658	901.17664	2236.91162	58.79353	1100.86829	2247.80908	57.92342	1500.35938	2268.04712	58.27047	1516.06177	1946.88147	47.35294	
436	2.175	917.18970	1916.86194	47.25200	901.20502	2236.93774	58.73576	1100.81934	2247.75586	57.94499	1500.34106	2268.05640	58.26479	1516.11829	1946.89392	47.31275	
437	2.180	917.20984	1916.89441	47.18100	901.19629	2236.94238	58.79333	1100.90820	2247.83008	57.89884	1500.47681	2268.10474	58.12915	1516.12097	1946.88733	47.31372	
438	2.185	917.18213	1916.92639	47.18690	901.14478	2236.86377	58.86053	1101.10974	2247.20972	57.64493	1500.45337	2268.05859	58.17936	1516.12012	1946.88745	47.32677	
439	2.190	917.21399	1916.98242	47.16233	901.17841	2236.88208	58.76602	1100.91553	2247.46191	57.75851	1500.47925	2268.07300	58.09327	1516.18445	1946.89392	47.26890	
440	2.195	917.20569	1917.05920	47.09238	901.14850	2236.87988	58.82614	1100.96252	2247.58887	57.69078	1500.53394	2268.07007	58.12668	1516.13342	1946.89185	47.34671	
441	2.200	917.23145	1917.25793	47.03218	901.23358	2236.93091	58.73665	1100.86804	2247.60620	57.77561	1500.49548	2268.04590	58.13441	1516.18201	1946.88879	47.27348	
442	2.205	917.15704	1917.50977	46.99817	901.20227	2236.91040	58.80459	1100.95569	2247.64038	57.69718	1500.48413	2268.06079	58.18343	1516.14734	1946.88110	47.31366	
443	2.210	917.20032	1917.81482	46.89975	901.35333	2236.78687	58.67056	1100.91248	2247.61621	57.73716	1500.33289	2268.00781	58.32871	1516.17175	1946.87537	47.28991	
444	2.215	917.13123	1918.15320	46.77205	901.18555	2236.92407	58.81836	1100.86987	2247.59204	57.79546	1500.42200	2268.03418	58.26352	1516.09302	1946.85046	47.36971	
445	2.220	917.10205	1918.69641	46.63065	901.04504	2236.84863	58.95769	1100.81482	2247.58325	57.84512	1500.27637	2267.98340	58.39843	1516.05261	1946.84033	47.45171	
446	2.225	917.43365	1916.61377	47.83363	901.17987	2236.78613	58.93138	1100.81970	2247.59351	57.84348	1500.29443	2268.03418	58.37319	1516.04993	1946.85437	47.45247	
447	2.230	917.36664	1916.58643	47.91577	901.11365	2236.89795	58.93546	1100.75879	2247.57642	57.95391	1500.28003	2267.99268	58.39518	1516.02942	1946.82300	47.49522	
448	2.235	917.32373	1916.55066	47.97201	901.05542	2236.86719	59.07626	1100.77148	2247.57422	57.97234	1500.26794	2267.98926	58.48785	1515.91638	1946.83923	47.58058	
449	2.240	917.32239	1916.54663	48.01439	901.06836	2236.85083	58.98398	1100.70630	2247.57397	58.02969	1500.21960	2267.97144	58.48590	1515.95569	1946.83899	47.57119	
450	2.245	917.35382	1916.57178	47.98161	901.04871	2236.85596	59.04912	1100.73877	2247.58374	58.02219	1500.13733	2267.91846	58.58718	1515.91907	1946.82776	47.58332	
451	2.250	917.27234	1916.53699	48.11524	901.04449	2236.83813	59.03509	1100.71460	2247.56104	58.02930	1500.13196	2267.90796	58.57320	1515.91162	1946.80200	47.62297	
452	2.255	917.30536	1916.53259	48.06865	901.07690	2236.85645	59.01170	1100.70081	2247.56470	58.08120	1500.10474	2267.89868	58.60219	1515.92285	1946.81750	47.57591	
453	2.260	917.27844	1916.51294	48.11412	901.02765	2236.84229	59.06904	1100.69727	2247.56836	58.04801	1500.14966	2267.92896	58.53725	1515.89612	1946.79138	47.63646	
454	2.265	917.31439	1916.52161	48.04188	901.09821	2236.84155	59.01911	1100.71069	2247.54199	58.07771	1500.08325	2267.91846	58.66624	1515.91357	1946.80444	47.58620	
455	2.270	917.29584	1916.52686	48.10971	901.03131	2236.83960	59.05843	1100.68701	2247.54150	58.03991	1500.13159	2267.94312	58.55756	1515.88953	1946.82776	47.62234	
456	2.275	917.29883	1916.52161	48.03554	901.02307	2236.82422	59.05476	1100.67920	2247.54688	58.10406	1500.21045	2267.96191	58.48914	1515.90967	1946.80969	47.60682	
457	2.280	917.31238	1916.44592	48.01186	901.00580	2236.87500	59.11420	1100.68164	2247.57129	58.03151	1500.13428	2267.95093	58.52612	1515.88696	1946.80103	47.63690	
